<?xml version="1.0" encoding="utf-8"?>
<svg viewBox="9.497 0.478 94.772 92.729" style="color: rgb(0, 0, 0); font-size: medium; font-style: normal; font-variant-ligatures: normal; font-variant-caps: normal; font-weight: 400; letter-spacing: normal; orphans: 2; text-align: start; text-indent: 0px; text-transform: none; white-space: normal; widows: 2; word-spacing: 0px; -webkit-text-stroke-width: 0px; text-decoration-thickness: initial; text-decoration-style: initial; text-decoration-color: initial;" xmlns="http://www.w3.org/2000/svg">
  <path d="M 48.429 -0.37 C 23.015 -0.37 2.42 20.719 2.517 46.716 C 2.614 72.713 23.366 93.861 48.78 93.861 C 74.192 93.861 94.788 72.713 94.692 46.716 C 94.536 20.781 73.841 -0.37 48.429 -0.37 Z M 25.734 30.173 L 32.387 18.296 C 32.739 17.69 33.33 17.326 34.04 17.326 L 47.487 17.326 C 48.138 17.326 48.792 17.69 49.148 18.296 L 55.888 30.051 C 56.244 30.658 56.247 31.385 55.894 31.99 L 49.305 43.868 C 48.951 44.474 48.358 44.837 47.648 44.837 L 34.202 44.837 C 33.55 44.837 32.897 44.474 32.54 43.868 L 25.801 32.234 C 25.445 31.506 25.442 30.779 25.734 30.173 Z M 56.071 63.441 L 49.42 75.198 C 49.066 75.804 48.477 76.167 47.766 76.167 L 34.319 76.167 C 33.666 76.167 33.013 75.804 32.657 75.198 L 25.92 63.563 C 25.561 62.956 25.558 62.23 25.912 61.623 L 32.503 49.685 C 32.854 49.079 33.446 48.717 34.157 48.717 L 47.603 48.717 C 48.256 48.717 48.908 49.079 49.268 49.685 L 56.005 61.441 C 56.421 62.108 56.423 62.836 56.071 63.441 Z M 76.198 59.502 C 75.844 60.109 75.251 60.472 74.541 60.472 L 61.094 60.472 C 60.444 60.472 59.79 60.109 59.434 59.502 L 52.695 47.868 C 52.337 47.261 52.335 46.534 52.687 45.928 L 59.336 33.991 C 59.691 33.384 60.282 33.02 60.994 33.02 L 74.44 33.02 C 75.091 33.02 75.745 33.384 76.102 33.991 L 82.839 45.748 C 83.197 46.352 83.2 47.08 82.847 47.686 L 76.198 59.502 Z" style="fill: rgb(29, 219, 90);" transform="matrix(-0.005886, -0.999983, 0.999983, -0.005886, 10.424124, 95.721222)"/>
</svg>